<?xml version="1.0" encoding="UTF-8"?>
<svg id="Capa_1" xmlns="http://www.w3.org/2000/svg" version="1.1" viewBox="0 0 800 800">
  <!-- Generator: Adobe Illustrator 29.1.0, SVG Export Plug-In . SVG Version: 2.1.0 Build 142)  -->
  <defs>
    <style>
      .st0 {
        fill: #c8c5c4;
      }
    </style>
  </defs>
  <path class="st0" d="M645.8,516.2c-18.8-80.3-77.5-192.1-254.8-215.7v-70.8c0-14.8-8.9-28.1-22.6-33.7-13.6-5.6-29.3-2.5-39.8,8l-161,161.8c-18.8,18.9-18.8,49.5,0,68.4l161,161.8c10.4,10.5,26.1,13.6,39.8,8,13.6-5.6,22.6-18.9,22.6-33.7v-68.5c60.5,0,147.7,8,209.8,46.7,10.3,6.4,23.5,6,33.3-1.1,9.8-7.1,14.5-19.4,11.7-31.2Z"/>
</svg>