<?xml version="1.0" encoding="UTF-8"?>
<svg id="_图层_1" data-name="图层_1" xmlns="http://www.w3.org/2000/svg" version="1.1" viewBox="0 0 800 800">
  <!-- Generator: Adobe Illustrator 29.1.0, SVG Export Plug-In . SVG Version: 2.1.0 Build 142)  -->
  <defs>
    <style>
      .st0, .st1 {
        fill: #c8c5c4;
      }

      .st1 {
        fill-opacity: 0;
      }
    </style>
  </defs>
  <rect class="st1" x="115" y="115" width="570" height="570"/>
  <path class="st0" d="M400,162.5c-131.2,0-237.5,106.3-237.5,237.5s106.3,237.5,237.5,237.5,237.5-106.3,237.5-237.5-106.3-237.5-237.5-237.5ZM400,542.5c-13.1,0-23.8-10.6-23.8-23.8s10.6-23.8,23.8-23.8,23.8,10.6,23.8,23.8-10.6,23.8-23.8,23.8ZM423.7,419.9v27.5c0,13.1-10.6,23.8-23.8,23.8s-23.8-10.6-23.8-23.8v-47.5c0-13.1,10.6-23.8,23.8-23.8,19.7,0,35.6-15.9,35.6-35.6s-15.9-35.6-35.6-35.6-35.6,15.9-35.6,35.6-10.6,23.7-23.7,23.7-23.8-10.6-23.8-23.7c-.2-45.9,36.9-83.3,82.8-83.5,45.9-.2,83.3,36.9,83.5,82.8.1,36.9-24,69.5-59.4,80Z"/>
</svg>